# xmcd CD database file
#
# Track frame offsets:
#	150
#	161779
#	292281
#
# Disc length: 4798 seconds
#
# Revision: 0
# Processed by: cddbd v1.5.1PL2 Copyright (c) Steve Scherf et al.
# Submitted via: CDex 1.51
#
DISCID=2c12bc03
DTITLE=Wingmakers - Hakomi  Project 4-6
DYEAR=1900
DGENRE=New Age
TTITLE0=Chamber  4
TTITLE1=Chamber  5
TTITLE2=Chamber  6
EXTD=
EXTT0=
EXTT1=
EXTT2=
PLAYORDER=
